<svg xmlns="http://www.w3.org/2000/svg" width="32" height="32" fill="#ffffff" class="bi bi-fingerprint" viewBox="0 0 16 16">
  <path fill="#ffffff" d="M8.06 6.5a.5.5 0 0 1 .5.5v.776a11.5 11.5 0 0 1-.552 3.519l-1.331 4.14a.5.5 0 0 1-.952-.305l1.33-4.141a10.5 10.5 0 0 0 .504-3.213V7a.5.5 0 0 1 .5-.5Z"/>
  <path fill="#ffffff" d="M6.06 7a2 2 0 1 1 4 0 .5.5 0 1 1-1 0 1 1 0 1 0-2 0v.332q0 .613-.066 1.221A.5.5 0 0 1 6 8.447q.06-.555.06-1.115zm3.509 1a.5.5 0 0 1 .487.513 11.5 11.5 0 0 1-.587 3.339l-1.266 3.8a.5.5 0 0 1-.949-.317l1.267-3.8a10.5 10.5 0 0 0 .535-3.048A.5.5 0 0 1 9.569 8m-3.356 2.115a.5.5 0 0 1 .33.626L5.24 14.939a.5.5 0 1 1-.955-.296l1.303-4.199a.5.5 0 0 1 .625-.329"/>
  <path fill="#ffffff" d="M4.759 5.833A3.501 3.501 0 0 1 11.559 7a.5.5 0 0 1-1 0 2.5 2.5 0 0 0-4.857-.833.5.5 0 1 1-.943-.334m.3 1.67a.5.5 0 0 1 .449.546 10.7 10.7 0 0 1-.4 2.031l-1.222 4.072a.5.5 0 1 1-.958-.287L4.15 9.793a9.7 9.7 0 0 0 .363-1.842.5.5 0 0 1 .546-.449Zm6 .647a.5.5 0 0 1 .5.5c0 1.28-.213 2.552-.632 3.762l-1.09 3.145a.5.5 0 0 1-.944-.327l1.089-3.145c.382-1.105.578-2.266.578-3.435a.5.5 0 0 1 .5-.5Z"/>
  <path fill="#ffffff" d="M3.902 4.222a5 5 0 0 1 5.202-2.113.5.5 0 0 1-.208.979 4 4 0 0 0-4.163 1.69.5.5 0 0 1-.831-.556m6.72-.955a.5.5 0 0 1 .705-.052A4.99 4.99 0 0 1 13.059 7v1.5a.5.5 0 1 1-1 0V7a3.99 3.99 0 0 0-1.386-3.028.5.5 0 0 1-.051-.705M3.68 5.842a.5.5 0 0 1 .422.568c-.044.289-.044.59-.044.907 0 .71-.163 1.417-.482 2.062a.5.5 0 1 1-.892-.45c.27-.547.408-1.146.408-1.748 0-.256.03-.497.065-.722a.5.5 0 0 1 .523-.417"/>
  <path fill="#ffffff" d="M11 2.275a.5.5 0 0 1 .5.5v.183a6 6 0 0 1 1.705 4.316l-.008 1.725a.5.5 0 0 1-1 .006l.008-1.725A5 5 0 0 0 11.5 2.775a.5.5 0 0 1-.5-.5Zm-5.321.43a.5.5 0 0 1 .655.268A6.03 6.03 0 0 1 6.5 4.775a.5.5 0 0 1-1 0 5.03 5.03 0 0 0-.168-1.575.5.5 0 0 1 .268-.655"/>
  <path fill="#ffffff" d="M13.259 4.222a.5.5 0 0 1 .208.979 4 4 0 0 0-1.4 3.074v1.225a.5.5 0 0 1-1 0V8.275c0-1.536.568-2.937 1.5-4.01a.5.5 0 0 1 .692-.043"/>
</svg>
